<svg width="275" height="161" viewBox="0 0 275 161" fill="none" xmlns="http://www.w3.org/2000/svg">
<path d="M80.2938 55.709C80.2588 55.709 80.2237 55.7035 80.1887 55.6943L79.1202 55.4032C78.9654 55.3608 78.8503 55.23 78.8291 55.0716L78.2082 50.4105C78.1806 50.206 78.3132 50.0144 78.5131 49.9683C78.7121 49.9222 78.9175 50.0346 78.9829 50.2281L80.6724 55.1803C80.7193 55.3203 80.6862 55.4751 80.5848 55.5838C80.5084 55.6648 80.4025 55.709 80.2938 55.709ZM79.5863 54.7031L79.672 54.7252L79.5366 54.3273L79.5863 54.7031Z" fill="white"/>
<path d="M108.871 11.8316C108.76 11.8316 108.653 11.7856 108.576 11.7026L99.7471 2.08748C99.6421 1.97142 99.6126 1.80559 99.6734 1.66187C99.7333 1.51817 99.8724 1.4224 100.028 1.41687L142.11 0.00195312C142.241 0.00748073 142.36 0.0553539 142.439 0.156681C142.518 0.258008 142.543 0.390674 142.508 0.512281L139.61 10.5217C139.562 10.6893 139.412 10.8054 139.239 10.8109L108.885 11.8316H108.871ZM100.924 2.18697L109.042 11.0265L138.923 10.0206L141.587 0.81998L100.924 2.18697Z" fill="white"/>
<path d="M168.437 13.7402C168.424 13.7402 168.41 13.7402 168.397 13.7384L139.186 10.809C139.068 10.7961 138.961 10.7335 138.895 10.6359C138.828 10.5364 138.808 10.4148 138.842 10.3006L141.74 0.291134C141.793 0.105063 141.979 -0.0239085 142.163 0.00372952L182.658 4.06609C182.828 4.08267 182.968 4.20613 183.007 4.37379C183.047 4.5396 182.975 4.71278 182.83 4.80305L168.649 13.6794C168.585 13.72 168.511 13.7402 168.437 13.7402ZM139.743 10.061L168.341 12.9296L181.416 4.74591L142.415 0.832782L139.743 10.061Z" fill="white"/>
<path d="M82.0006 16.6403C81.9499 16.6403 81.8984 16.6311 81.8505 16.6108L62.6376 8.84903C62.4728 8.7827 62.3714 8.61505 62.3898 8.43819C62.4083 8.25948 62.5418 8.11578 62.7178 8.08446L99.9717 1.42256C100.102 1.40045 100.243 1.44467 100.336 1.546L109.166 11.1612C109.264 11.2699 109.297 11.4209 109.25 11.5591C109.203 11.6973 109.085 11.8005 108.941 11.8263L82.0706 16.6348C82.0476 16.6384 82.0246 16.6403 82.0006 16.6403ZM64.2239 8.62795L82.0439 15.826L108.084 11.1667L99.8962 2.24977L64.2239 8.62795Z" fill="white"/>
<path d="M118.924 36.0896C118.771 36.0896 118.632 36.003 118.565 35.8648C118.496 35.7267 118.515 35.5609 118.613 35.4392L138.914 10.1605C138.999 10.0555 139.13 9.99101 139.265 10.0131L168.476 12.9424C168.639 12.959 168.776 13.0733 168.821 13.2298C168.866 13.3883 168.811 13.5559 168.681 13.6572L140.118 35.6972C140.05 35.7487 139.966 35.7782 139.88 35.7801L118.929 36.0896H118.924ZM139.401 10.8311L119.768 35.2771L139.735 34.9823L167.397 13.637L139.401 10.8311Z" fill="white"/>
<path d="M124.239 62.6393C124.226 62.6393 124.212 62.6393 124.199 62.6375L118.583 62.0756C118.436 62.0608 118.31 61.9669 118.254 61.8324C118.197 61.696 118.219 61.5413 118.312 61.4271L139.563 35.1295C139.649 35.0208 139.782 34.9655 139.922 34.984L159.637 37.3661C159.789 37.3846 159.917 37.4877 159.966 37.6333C160.016 37.777 159.979 37.9391 159.87 38.046L135.537 62.1548C135.466 62.2267 135.37 62.2672 135.269 62.2708L124.253 62.6393H124.239ZM119.398 61.3534L124.252 61.8397L135.086 61.4768L158.72 38.0607L140.045 35.8038L119.398 61.3534Z" fill="white"/>
<path d="M159.589 38.1623C159.573 38.1623 159.557 38.1605 159.541 38.1586L139.826 35.7765C139.665 35.7581 139.531 35.642 139.489 35.4872C139.446 35.3306 139.502 35.163 139.63 35.0635L168.193 13.0236C168.291 12.9481 168.418 12.9204 168.542 12.9554L192.171 19.3834C192.327 19.4257 192.443 19.5584 192.463 19.7205C192.482 19.8826 192.402 20.0392 192.259 20.1185L159.782 38.1126C159.723 38.1458 159.656 38.1623 159.589 38.1623ZM140.891 35.1004L159.509 37.3499L191.011 19.8955L168.523 13.779L140.891 35.1004Z" fill="white"/>
<path d="M192.066 20.1677C192.031 20.1677 191.995 20.1622 191.961 20.153L168.332 13.7251C168.179 13.6845 168.065 13.5556 168.042 13.399C168.019 13.2405 168.091 13.0858 168.225 13.001L182.407 4.12463C182.5 4.06568 182.611 4.04724 182.723 4.07857L215.476 12.9863C215.65 13.0323 215.77 13.1908 215.77 13.3713C215.77 13.5519 215.65 13.7085 215.477 13.7564L192.172 20.153C192.137 20.1622 192.102 20.1677 192.066 20.1677ZM169.424 13.1945L192.065 19.3534L213.854 13.3732L182.682 4.89473L169.424 13.1945Z" fill="white"/>
<path d="M99.9225 39.0451C99.8065 39.0451 99.6941 38.9936 99.6176 38.9033C99.5274 38.7983 99.4997 38.6527 99.543 38.5201L108.491 11.3069C108.544 11.1485 108.689 11.0379 108.857 11.0324L139.211 10.0117C139.352 10.0117 139.513 10.0928 139.583 10.2328C139.653 10.3728 139.634 10.5405 139.537 10.6621L119.235 35.9408C119.173 36.0182 119.084 36.0698 118.985 36.0845L99.9843 39.0396C99.9631 39.0433 99.9428 39.0451 99.9225 39.0451ZM109.163 11.8227L100.507 38.1498L118.709 35.3199L138.368 10.8408L109.163 11.8227Z" fill="white"/>
<path d="M118.622 62.0776C118.61 62.0776 118.596 62.0776 118.583 62.0757L105.397 60.7585C105.264 60.7456 105.146 60.6663 105.083 60.5466C105.02 60.4287 105.022 60.2868 105.086 60.1689L118.573 35.4982C118.642 35.371 118.773 35.2918 118.918 35.29L139.868 34.9805C140.037 35.0063 140.165 35.0652 140.233 35.2052C140.301 35.3453 140.282 35.5111 140.184 35.6308L118.933 61.9284C118.857 62.0242 118.742 62.0776 118.622 62.0776ZM106.077 60.0234L118.447 61.2578L139.027 35.7929L119.162 36.0858L106.077 60.0234Z" fill="white"/>
<path d="M135.256 62.2712C135.097 62.2712 134.952 62.1772 134.89 62.0298C134.824 61.8788 134.858 61.7037 134.975 61.5876L159.308 37.4788C159.411 37.3756 159.564 37.3351 159.706 37.3812L175.174 42.0994C175.312 42.1399 175.416 42.2523 175.447 42.3923C175.479 42.5323 175.433 42.6797 175.326 42.7755L154.767 61.5232C154.697 61.5876 154.607 61.6245 154.511 61.6282L135.269 62.2712L135.256 62.2712ZM159.701 38.2139L136.261 61.4384L154.338 60.8342L174.27 42.6576L159.701 38.2139Z" fill="white"/>
<path d="M62.7014 24.5083C62.6783 24.5083 62.6544 24.5064 62.6313 24.5028L39.1019 20.3335C38.9315 20.3022 38.7998 20.1659 38.7758 19.9946C38.7519 19.8232 38.8412 19.6556 38.9978 19.58L62.6138 8.11881C62.7142 8.06723 62.8321 8.06354 62.9381 8.10776L82.1509 15.8695C82.3011 15.9303 82.4006 16.0759 82.4006 16.2398C82.4006 16.402 82.302 16.5494 82.1519 16.6102L62.8524 24.4788C62.8045 24.4991 62.753 24.5083 62.7014 24.5083ZM40.4551 19.7606L62.6571 23.694L80.9377 16.2417L62.8027 8.91473L40.4551 19.7606Z" fill="white"/>
<path d="M85.7684 44.1936C85.6965 44.1936 85.6247 44.1733 85.562 44.1365C85.4589 44.0739 85.3889 43.967 85.3723 43.8473L81.6047 16.2932C81.5761 16.0814 81.7198 15.8842 81.9308 15.8455L108.801 11.037C108.939 11.0131 109.08 11.0647 109.173 11.1697C109.266 11.2747 109.295 11.4221 109.251 11.5566L100.303 38.7698C100.265 38.8858 100.175 38.978 100.059 39.0203L85.9047 44.1697C85.8605 44.1862 85.8144 44.1936 85.7684 44.1936ZM82.4485 16.5659L86.0972 43.2485L99.6043 38.335L108.283 11.9435L82.4485 16.5659Z" fill="white"/>
<path d="M105.437 60.7607C105.424 60.7607 105.41 60.7607 105.397 60.7589L94.9871 59.7161C94.965 59.7143 94.9438 59.7106 94.9227 59.7032L94.5275 59.5964C94.3165 59.5393 94.1912 59.3237 94.2456 59.1118L99.5359 38.5458C99.5755 38.391 99.7035 38.2749 99.861 38.251L118.862 35.2959C119.016 35.2664 119.162 35.3346 119.251 35.4598C119.338 35.5851 119.347 35.7491 119.275 35.8817L105.788 60.5525C105.717 60.6815 105.582 60.7607 105.437 60.7607ZM95.1189 58.9257L105.213 59.9372L118.184 36.2097L100.244 38.999L95.1189 58.9257Z" fill="white"/>
<path d="M0.443223 46.773C0.328992 46.773 0.214785 46.7233 0.136474 46.6293C-0.000773124 46.4654 0.0158121 46.2222 0.173321 46.0785L17.8635 29.8585C17.892 29.8327 17.9243 29.8106 17.9593 29.794L28.2294 24.8105C28.4099 24.7202 28.6347 24.7829 28.7443 24.9616C28.8512 25.1366 28.8088 25.3632 28.6448 25.4885L0.68457 46.692C0.612711 46.7473 0.527967 46.773 0.443223 46.773ZM18.36 30.4868L7.02682 40.8794L24.9399 27.294L18.36 30.4868Z" fill="white"/>
<path d="M39.1718 20.3391C39.1488 20.3391 39.1258 20.3372 39.1027 20.3335L35.9597 19.779C35.7838 19.7477 35.6502 19.604 35.6318 19.4271C35.6124 19.2502 35.7128 19.0826 35.8777 19.0144L62.6368 8.10778C62.8357 8.02671 63.0633 8.11699 63.1526 8.31596C63.2411 8.51309 63.1563 8.74338 62.9619 8.83735L39.3459 20.2985C39.2916 20.3262 39.2317 20.3391 39.1718 20.3391ZM37.4631 19.2318L39.1138 19.5229L51.5201 13.5021L37.4631 19.2318Z" fill="white"/>
<path d="M175.057 42.8803C175.018 42.8803 174.979 42.8747 174.94 42.8618L159.472 38.1436C159.319 38.0975 159.208 37.963 159.192 37.8046C159.174 37.6443 159.254 37.4896 159.395 37.4122L191.872 19.418C191.998 19.348 192.153 19.3517 192.277 19.4291L206.715 28.3773C206.841 28.4547 206.913 28.5966 206.903 28.744C206.892 28.8932 206.801 29.0222 206.664 29.083L175.217 42.8471C175.167 42.8692 175.111 42.8803 175.057 42.8803ZM160.607 37.6554L175.032 42.0549L205.646 28.6556L192.055 20.2305L160.607 37.6554Z" fill="white"/>
<path d="M206.504 29.1168C206.431 29.1168 206.357 29.0966 206.293 29.056L191.855 20.1078C191.72 20.0249 191.648 19.8683 191.671 19.7117C191.693 19.5551 191.807 19.4261 191.96 19.3838L215.265 12.9872C215.371 12.9558 215.487 12.9724 215.582 13.0332L235.6 25.4377C235.745 25.528 235.818 25.6993 235.779 25.867C235.74 26.0328 235.6 26.1562 235.43 26.1746L206.545 29.115C206.531 29.1168 206.518 29.1168 206.504 29.1168ZM193.055 19.9125L206.599 28.3062L234.181 25.4985L215.308 13.8033L193.055 19.9125Z" fill="white"/>
<path d="M154.497 61.6285C154.335 61.6285 154.189 61.5309 154.128 61.3798C154.064 61.2251 154.104 61.0463 154.228 60.9339L174.788 42.1863C174.927 42.0573 175.135 42.0445 175.289 42.155L184.166 48.4798C184.262 48.5479 184.323 48.6548 184.332 48.7727C184.342 48.8887 184.3 49.0048 184.218 49.0877L175.539 57.8112C175.481 57.8701 175.406 57.9088 175.325 57.9236L154.663 61.6193C154.646 61.6211 154.627 61.623 154.609 61.6248L154.513 61.6285L154.497 61.6285ZM175.088 42.9933L155.77 60.6079L175.061 57.1572L183.319 48.8574L175.088 42.9933Z" fill="white"/>
<path d="M94.6328 59.6109C94.5978 59.6109 94.5618 59.6054 94.5278 59.5962L86.2216 57.3338C86.0539 57.2877 85.9351 57.1403 85.9277 56.9653L85.3695 43.811C85.3621 43.6378 85.4681 43.4776 85.632 43.4186L99.7867 38.2693C99.924 38.2177 100.082 38.2508 100.192 38.3485C100.302 38.448 100.347 38.6009 100.31 38.7446L95.0197 59.3106C94.993 59.4138 94.9257 59.5022 94.8336 59.5575C94.7719 59.5925 94.7028 59.6109 94.6328 59.6109ZM86.7135 56.6392L94.3463 58.7192L99.3473 39.2807L86.1801 44.0708L86.7135 56.6392Z" fill="white"/>
<path d="M78.6042 50.7562C78.5857 50.7562 78.5664 50.7544 78.548 50.7525C78.4292 50.7359 78.3242 50.6659 78.2624 50.5628L62.3594 24.315C62.2986 24.2155 62.2847 24.0939 62.3215 23.9833C62.3584 23.8728 62.4422 23.7825 62.55 23.7383L81.8494 15.8697C81.9655 15.8218 82.0936 15.8328 82.2004 15.8936C82.3073 15.9563 82.38 16.0631 82.3966 16.1866L86.1642 43.7406C86.1817 43.8696 86.1347 44.0004 86.038 44.0888L78.8741 50.6512C78.8004 50.7194 78.7037 50.7562 78.6042 50.7562ZM63.2851 24.3021L78.6935 49.7319L85.3435 43.6411L81.6744 16.8037L63.2851 24.3021Z" fill="white"/>
<path d="M53.9077 34.2364H53.8948L23.8343 33.2691C23.6786 33.2636 23.5404 33.1696 23.4796 33.0259C23.4188 32.8822 23.4464 32.7164 23.5505 32.6022L35.7321 19.1181C35.8242 19.0168 35.9661 18.9708 36.0978 18.991L62.7712 23.7148C62.9139 23.7406 63.0318 23.8419 63.0788 23.9801C63.1267 24.1164 63.0954 24.2693 62.9978 24.3761L54.2043 34.1037C54.1278 34.1884 54.0201 34.2364 53.9077 34.2364ZM24.7213 32.4972L53.7354 33.4313L61.9209 24.3762L36.177 19.8164L24.7213 32.4972Z" fill="white"/>
<path d="M86.3264 57.3479C86.2914 57.3479 86.2564 57.3424 86.2214 57.3332L80.1887 55.6935C80.0606 55.6585 79.9584 55.5627 79.9151 55.4374L78.2257 50.4852C78.175 50.336 78.2174 50.1683 78.3344 50.0615L85.4983 43.499C85.6125 43.394 85.7802 43.359 85.9211 43.4254C86.0648 43.4843 86.1606 43.6225 86.1671 43.7772L86.7253 56.9315C86.7308 57.0587 86.6756 57.1803 86.5761 57.2613C86.5042 57.3184 86.4158 57.3479 86.3264 57.3479ZM80.6032 54.9787L85.9036 56.4194L85.4053 44.6689L79.0667 50.4741L80.6032 54.9787Z" fill="white"/>
<path d="M175.255 57.9292C175.109 57.9292 174.971 57.8481 174.902 57.7154C174.821 57.5607 174.849 57.3709 174.972 57.2475L183.651 48.524C183.757 48.4135 183.913 48.3803 184.063 48.4264C184.206 48.4761 184.311 48.6014 184.331 48.7525L185.167 55.0183C185.191 55.1988 185.091 55.3738 184.922 55.442L181.615 56.7888C181.589 56.7998 181.562 56.8072 181.534 56.8127L175.325 57.9236C175.302 57.9273 175.279 57.9292 175.255 57.9292ZM183.645 49.6626L176.433 56.9122L181.353 56.0315L184.335 54.8174L183.645 49.6626Z" fill="white"/>
<path d="M79.225 55.4173C79.19 55.4173 79.155 55.4118 79.12 55.4026L75.9659 54.5441C75.9042 54.5275 75.848 54.4962 75.801 54.4538L53.6377 34.131C53.4756 33.9817 53.4636 33.7312 53.611 33.5691L62.4045 23.8415C62.4901 23.7476 62.609 23.6886 62.7388 23.7107C62.865 23.7236 62.9774 23.7936 63.0428 23.9023L78.9459 50.1501C78.9745 50.1961 78.9929 50.2496 79.0003 50.303L79.6211 54.9641C79.6386 55.0968 79.5889 55.2294 79.4885 55.3179C79.4148 55.3823 79.3208 55.4173 79.225 55.4173ZM76.2699 53.7998L78.7497 54.4741L78.2191 50.4928L62.6375 24.7756L54.4704 33.8104L76.2699 53.7998Z" fill="white"/>
<path d="M183.935 49.2054C183.853 49.2054 183.772 49.1796 183.702 49.1317L174.825 42.807C174.708 42.7222 174.645 42.5822 174.659 42.4403C174.675 42.2966 174.765 42.1732 174.897 42.1142L206.344 28.3501C206.45 28.3041 206.568 28.3078 206.672 28.3538C206.775 28.4017 206.853 28.492 206.886 28.6007L209.938 38.7077C209.999 38.9086 209.896 39.1204 209.702 39.196L184.079 49.1778C184.033 49.1962 183.983 49.2054 183.935 49.2054ZM175.863 42.5638L183.991 48.3542L209.067 38.5862L206.252 29.2639L175.863 42.5638Z" fill="white"/>
<path d="M239.622 40.1887H239.609L209.543 39.2234C209.372 39.2178 209.223 39.1036 209.174 38.9396L206.122 28.8326C206.087 28.7183 206.105 28.5949 206.172 28.4954C206.238 28.3959 206.345 28.3315 206.464 28.3186L235.349 25.3782C235.554 25.3579 235.718 25.4795 235.772 25.6601L240.004 39.6729C240.042 39.7963 240.017 39.9308 239.939 40.0321C239.863 40.1316 239.746 40.1887 239.622 40.1887ZM209.855 38.433L239.079 39.3707L235.102 26.2072L207.026 29.0647L209.855 38.433Z" fill="white"/>
<path d="M260.731 42.9267C260.714 42.9267 260.696 42.9248 260.679 42.923L239.57 40.1853C239.415 40.1651 239.285 40.0545 239.24 39.9053L235.007 25.8925C234.964 25.7488 235.003 25.594 235.11 25.4908C235.216 25.3877 235.375 25.3545 235.514 25.3969L238.918 26.5152C238.957 26.5281 238.993 26.5465 239.026 26.5686L260.963 42.2008C261.112 42.3077 261.17 42.503 261.103 42.6725C261.042 42.8272 260.894 42.9267 260.731 42.9267ZM239.93 39.4262L259.197 41.9245L238.611 27.2558L235.994 26.3954L239.93 39.4262Z" fill="white"/>
<path d="M2.73505 64.01C2.70466 64.01 2.67332 64.0063 2.64199 63.9989C2.48078 63.9602 2.36104 63.8276 2.33895 63.6636L0.0470817 46.4267C0.0277446 46.283 0.0867018 46.1411 0.201838 46.0546L35.7875 19.0661C35.9506 18.9445 36.1827 18.963 36.3237 19.114C36.4627 19.2669 36.4637 19.4991 36.3255 19.652L24.1615 33.1177L3.06483 63.8368C2.98929 63.9474 2.86492 64.01 2.73505 64.01ZM0.869686 46.552L2.9939 62.5269L23.5176 32.6423C23.5277 32.6276 23.5387 32.6147 23.5507 32.6018L32.8766 22.2773L0.869686 46.552Z" fill="white"/>
<path d="M76.0707 54.5587C76.0357 54.5587 76.0007 54.5531 75.9657 54.5439L71.2982 53.2745C71.2613 53.2653 71.2254 53.2487 71.1922 53.2285L56.752 44.2821C56.6691 44.2323 56.6073 44.1513 56.5797 44.0592L53.5251 33.9521C53.4726 33.7789 53.5426 33.5929 53.6946 33.4971C53.8475 33.4049 54.0456 33.4197 54.1773 33.5413L76.3406 53.8641C76.477 53.9894 76.5101 54.1902 76.4208 54.3523C76.3489 54.4813 76.2135 54.5587 76.0707 54.5587ZM71.5644 52.5192L74.5876 53.3409L54.7116 35.1165L57.301 43.6833L71.5644 52.5192Z" fill="white"/>
<path d="M28.0806 47.2822C27.9056 47.2822 27.749 47.1679 27.6983 46.9985L23.4646 32.9856C23.4268 32.8622 23.4517 32.7277 23.53 32.6264C23.6083 32.5232 23.7124 32.455 23.8598 32.4698L53.9203 33.437C54.0916 33.4425 54.24 33.5568 54.2897 33.7207L57.3443 43.8278C57.3793 43.942 57.3609 44.0655 57.2946 44.1649C57.2282 44.2644 57.1213 44.3289 57.0025 44.3418L28.1211 47.2803C28.1073 47.2822 28.0935 47.2822 28.0806 47.2822ZM24.3904 33.2878L28.368 46.4513L56.4388 43.5957L53.608 34.2274L24.3904 33.2878Z" fill="white"/>
<path d="M184.771 55.4712C184.702 55.4712 184.632 55.4527 184.57 55.4177C184.463 55.3551 184.391 55.2464 184.375 55.1248L183.538 48.859C183.513 48.6766 183.618 48.4998 183.79 48.4334L209.41 38.4516C209.586 38.3872 209.779 38.4461 209.885 38.5972C209.99 38.7501 209.977 38.9546 209.852 39.0909L201.062 48.8203C201.021 48.8664 200.971 48.9014 200.916 48.9235L184.922 55.4417C184.873 55.4619 184.822 55.4712 184.771 55.4712ZM184.372 49.0635L185.099 54.5058L200.53 48.2179L208.126 39.8094L184.372 49.0635Z" fill="white"/>
<path d="M227.433 53.6729C227.41 53.6729 227.387 53.671 227.363 53.6674L200.695 48.9473C200.552 48.9215 200.434 48.8202 200.387 48.682C200.339 48.5457 200.371 48.3928 200.468 48.2859L209.259 38.5565C209.337 38.4681 209.44 38.4147 209.569 38.4239L239.635 39.3893C239.79 39.3948 239.929 39.4887 239.989 39.6325C240.05 39.7762 240.022 39.942 239.918 40.0562L227.729 53.5403C227.653 53.625 227.544 53.6729 227.433 53.6729ZM201.545 48.2859L227.285 52.8402L238.747 40.1612L209.728 39.229L201.545 48.2859Z" fill="white"/>
<path d="M263.029 60.167C263.005 60.167 262.981 60.1652 262.957 60.1597L227.361 53.6654C227.219 53.6396 227.102 53.5383 227.055 53.402C227.009 53.2638 227.04 53.1127 227.137 53.0059L239.325 39.5218C239.414 39.426 239.539 39.3836 239.674 39.3928L260.782 42.1305C260.962 42.1545 261.103 42.2945 261.127 42.4732L263.425 59.7138C263.442 59.8409 263.397 59.9681 263.304 60.0565C263.23 60.1284 263.13 60.167 263.029 60.167ZM228.211 53.0096L262.56 59.2754L260.375 42.8841L239.778 40.2126L228.211 53.0096Z" fill="white"/>
<path d="M273.891 80.5547C273.872 80.5547 273.853 80.5528 273.833 80.551L245.281 76.3837C245.129 76.3615 245.003 76.2528 244.957 76.1055C244.911 75.9581 244.955 75.7978 245.069 75.6928L262.759 59.4728C262.874 59.3678 263.043 59.3402 263.186 59.4009C263.331 59.4617 263.426 59.6036 263.429 59.7602L263.47 61.9268L274.234 79.9504C274.313 80.083 274.31 80.2489 274.224 80.376C274.149 80.4884 274.024 80.5547 273.891 80.5547ZM246.229 75.713L273.117 79.6372L262.73 62.2455C262.694 62.1866 262.674 62.1184 262.672 62.0484L262.647 60.6611L246.229 75.713Z" fill="white"/>
<path d="M48.1009 59.6859C48.0272 59.6859 47.9544 59.6656 47.8899 59.6251L27.8701 47.2206C27.7255 47.1304 27.6528 46.959 27.6914 46.7914C27.7301 46.6256 27.8701 46.5021 28.0406 46.4837L56.922 43.5451C57.0086 43.5359 57.0979 43.5562 57.1725 43.6041L71.6137 52.5505C71.7491 52.6334 71.8219 52.79 71.7989 52.9466C71.7768 53.1032 71.6625 53.2322 71.5096 53.2745L48.2068 59.6711C48.1718 59.6803 48.1359 59.6859 48.1009 59.6859ZM29.2897 47.1598L48.1635 58.855L70.4144 52.7458L56.8676 44.354L29.2897 47.1598Z" fill="white"/>
<path d="M24.6713 79.6501C24.5893 79.6501 24.5082 79.6243 24.4391 79.5764L2.50239 63.9368C2.3246 63.8096 2.2813 63.5646 2.40474 63.3841L23.5171 32.6428C23.6036 32.5175 23.7529 32.4493 23.9086 32.4751C24.0596 32.4972 24.1849 32.606 24.2291 32.7533L28.4628 46.7662C28.4785 46.8177 28.484 46.8712 28.4776 46.9246L25.0683 79.2927C25.0536 79.4327 24.9651 79.5561 24.8352 79.6151C24.7827 79.639 24.7275 79.6501 24.6713 79.6501ZM3.28633 63.513L24.3452 78.5281L27.6743 46.9209L23.705 33.7814L3.28633 63.513Z" fill="white"/>
<path d="M53.1213 143.294C53.0752 143.294 53.0292 143.286 52.985 143.27L17.9971 130.541C17.9068 130.508 17.8313 130.443 17.7843 130.359L0.0508744 98.4641C-0.0430761 98.2964 -0.00255051 98.0846 0.146676 97.9611C0.295902 97.8396 0.510528 97.8414 0.657925 97.9648L53.3792 142.588C53.5275 142.713 53.5644 142.927 53.4667 143.095C53.394 143.22 53.2604 143.294 53.1213 143.294ZM18.4098 129.841L51.1546 141.754L1.81399 99.9914L18.4098 129.841Z" fill="white"/>
<path d="M100.042 158.898C100.019 158.898 99.995 158.896 99.972 158.892L62.718 152.227C62.6812 152.219 62.6462 152.208 62.614 152.192L17.9593 130.524C17.7677 130.432 17.6821 130.205 17.765 130.008C17.8479 129.813 18.0653 129.713 18.2698 129.789L53.2576 142.518L100.168 158.119C100.367 158.185 100.481 158.393 100.429 158.596C100.384 158.776 100.222 158.898 100.042 158.898ZM62.9124 151.449L94.6587 157.129L52.9951 143.273L25.2946 133.195L62.9124 151.449Z" fill="white"/>
<path d="M200.678 64.58C200.627 64.58 200.576 64.5708 200.527 64.5505L181.314 56.7887C181.163 56.7279 181.064 56.5824 181.064 56.4184C181.064 56.2563 181.163 56.1089 181.313 56.0481L200.614 48.1832C200.684 48.1555 200.759 48.1482 200.835 48.1592L227.503 52.8793C227.678 52.9106 227.812 53.0543 227.83 53.2311C227.849 53.408 227.749 53.5757 227.584 53.6438L200.829 64.5505C200.78 64.5707 200.729 64.58 200.678 64.58ZM182.527 56.4166L200.677 63.7491L226 53.4265L200.809 48.968L184.922 55.442L182.527 56.4166Z" fill="white"/>
<path d="M245.339 76.3867C245.304 76.3867 245.27 76.383 245.236 76.3738L200.575 64.5662C200.409 64.522 200.29 64.3765 200.279 64.2051C200.268 64.0338 200.367 63.8735 200.526 63.809L227.282 52.9024C227.352 52.8729 227.431 52.8637 227.505 52.8803L263.101 59.3745C263.25 59.4003 263.37 59.5109 263.413 59.6564C263.455 59.8019 263.411 59.9585 263.299 60.0617L245.608 76.2816C245.534 76.3498 245.437 76.3867 245.339 76.3867ZM201.935 64.0983L245.23 75.5447L262.166 60.0156L227.476 53.6872L201.935 64.0983Z" fill="white"/>
<path d="M31.2092 114.026C31.1484 114.026 31.0876 114.011 31.0305 113.984L0.221081 98.6276C0.0856637 98.5595 0 98.4213 0 98.2702L0.043295 46.3734C0.043295 46.1633 0.20726 45.9883 0.41729 45.9754C0.62732 45.9312 0.811547 46.1136 0.839185 46.3199L3.12092 63.4795L31.5565 113.429C31.644 113.582 31.6201 113.773 31.4994 113.901C31.422 113.982 31.3161 114.026 31.2092 114.026ZM0.799575 98.0233L30.2125 112.683L2.38767 63.8074C2.36188 63.7632 2.3453 63.7135 2.33885 63.6637L0.837343 52.3739L0.799575 98.0233Z" fill="white"/>
<path d="M260.73 118.184C260.711 118.184 260.692 118.183 260.672 118.181L232.197 114.023C232.025 113.997 231.889 113.862 231.861 113.689C231.833 113.518 231.921 113.346 232.077 113.269L262.894 97.9132C263.02 97.8524 263.169 97.8561 263.286 97.9334C263.404 98.0071 263.475 98.1379 263.472 98.2779L263.429 100.551L261.127 117.838C261.113 117.943 261.057 118.039 260.971 118.103C260.902 118.157 260.817 118.184 260.73 118.184ZM233.575 113.415L260.388 117.331L262.633 100.491L262.66 98.9228L233.575 113.415Z" fill="white"/>
<path d="M215.371 147.339C215.354 147.339 215.337 147.338 215.321 147.336L200.507 145.469C200.32 145.445 200.175 145.294 200.159 145.106C200.143 144.92 200.261 144.745 200.441 144.69L238.678 133.037C238.882 132.973 239.108 133.089 239.175 133.301C239.241 133.509 239.127 133.732 238.918 133.8L235.514 134.913L215.581 147.279C215.518 147.319 215.444 147.339 215.371 147.339ZM202.462 144.911L215.28 146.525L232.809 135.663L202.462 144.911Z" fill="white"/>
<path d="M80.8462 68.596C80.8112 68.596 80.7762 68.5905 80.7412 68.5813L47.9955 59.6718C47.8213 59.6257 47.7007 59.4673 47.7007 59.2867C47.7007 59.1062 47.8214 58.9496 47.9945 58.9017L71.2974 52.5051C71.3664 52.4885 71.4392 52.4848 71.5083 52.5051L95.1308 58.933C95.2846 58.9735 95.3988 59.1025 95.4219 59.2591C95.4449 59.4157 95.373 59.5723 95.2386 59.657L81.0581 68.5353C80.9945 68.5758 80.9208 68.596 80.8462 68.596ZM49.6167 59.2849L80.7826 67.7652L94.0401 59.4636L71.4042 53.3046L49.6167 59.2849Z" fill="white"/>
<path d="M263.072 98.6702C263.048 98.6702 263.025 98.6683 263.001 98.6628L210.28 89.1158C210.102 89.0845 209.968 88.9371 209.953 88.7565C209.938 88.5778 210.044 88.4102 210.215 88.3475L245.203 75.6114C245.263 75.5893 245.333 75.5856 245.397 75.5911L273.95 79.7585C274.081 79.7788 274.196 79.8617 274.253 79.9833C274.31 80.103 274.303 80.2449 274.234 80.3591L263.415 98.4748C263.342 98.5983 263.212 98.6702 263.072 98.6702ZM211.877 88.5926L262.872 97.8282L273.241 80.4642L245.381 76.3981L211.877 88.5926Z" fill="white"/>
<path d="M100.074 150.596C100.054 150.596 100.033 150.595 100.012 150.591L53.0591 143.288C52.9864 143.277 52.9192 143.245 52.863 143.199L0.141666 98.5761C-0.0130879 98.4453 -0.0453273 98.2187 0.0661303 98.0511C0.176664 97.8816 0.396833 97.8189 0.578301 97.9129L31.3877 113.269L100.261 149.843C100.434 149.935 100.515 150.138 100.453 150.322C100.398 150.488 100.243 150.596 100.074 150.596ZM53.2931 142.516L97.7911 149.438L31.022 113.98L3.18702 100.107L53.2931 142.516Z" fill="white"/>
<path d="M142.124 160.309H142.11L100.028 158.898C99.9903 158.896 99.9525 158.889 99.9157 158.878L52.995 143.273C52.7978 143.207 52.6836 143.002 52.7324 142.8C52.7813 142.597 52.971 142.462 53.1829 142.499L100.136 149.802L142.214 159.521C142.414 159.567 142.546 159.756 142.52 159.961C142.494 160.16 142.324 160.309 142.124 160.309ZM100.113 158.1L138.021 159.371L99.9838 150.585L57.7841 144.023L100.113 158.1Z" fill="white"/>
<path d="M163.423 71.2414C163.313 71.2414 163.205 71.1953 163.128 71.1124L154.299 61.4954C154.2 61.3867 154.168 61.2357 154.215 61.0975C154.262 60.9593 154.38 60.8561 154.524 60.8303L181.394 56.0237C181.465 56.0108 181.543 56.0181 181.614 56.0476L200.828 63.8094C200.993 63.8758 201.094 64.0434 201.076 64.2202C201.057 64.399 200.924 64.5427 200.748 64.574L163.493 71.2359C163.47 71.2396 163.446 71.2414 163.423 71.2414ZM155.38 61.4899L163.569 70.4087L199.242 64.0305L181.421 56.8325L155.38 61.4899Z" fill="white"/>
<path d="M210.351 89.1228C210.303 89.1228 210.254 89.1136 210.209 89.097L163.281 71.2153C163.112 71.1508 163.008 70.9831 163.025 70.8044C163.041 70.6257 163.176 70.4802 163.353 70.447L200.607 63.7851C200.666 63.7777 200.724 63.7777 200.78 63.7925L245.441 75.6001C245.609 75.6461 245.73 75.7935 245.737 75.9685C245.746 76.1435 245.64 76.302 245.475 76.3628L210.487 89.0989C210.443 89.1154 210.397 89.1228 210.351 89.1228ZM164.912 70.9813L210.353 88.2974L244.004 76.0477L200.661 64.5884L164.912 70.9813Z" fill="white"/>
<path d="M142.124 160.309C142.093 160.309 142.063 160.306 142.033 160.298L99.9839 150.585C99.7849 150.539 99.6532 150.351 99.6771 150.149C99.702 149.946 99.9083 149.821 100.08 149.797L151.858 150.561L182.681 155.457C182.879 155.488 183.024 155.661 183.018 155.862C183.012 156.063 182.858 156.228 182.658 156.249L142.163 160.307C142.15 160.309 142.137 160.309 142.124 160.309ZM103.819 150.652L142.149 159.506L179.507 155.761L151.79 151.355L103.819 150.652Z" fill="white"/>
<path d="M182.618 156.25C182.597 156.25 182.576 156.248 182.556 156.245L151.789 151.355C151.592 151.324 151.449 151.153 151.452 150.954C151.456 150.755 151.606 150.589 151.804 150.565L200.509 144.677L215.42 146.543C215.61 146.567 215.755 146.72 215.769 146.912C215.782 147.101 215.66 147.274 215.475 147.324L182.723 156.236C182.689 156.245 182.653 156.25 182.618 156.25ZM154.734 151.014L182.596 155.442L213.318 147.083L200.507 145.469L154.734 151.014Z" fill="white"/>
<path d="M62.9049 91.2992C62.8662 91.2992 62.8266 91.2937 62.7888 91.2827L24.5557 79.6336C24.3724 79.5765 24.2545 79.3996 24.2747 79.208L27.684 46.8399C27.6978 46.7036 27.7816 46.5838 27.905 46.523C28.0276 46.4604 28.174 46.4696 28.2919 46.5433L48.3117 58.9478C48.3771 58.9883 48.4297 59.0473 48.4628 59.1173L63.267 90.73C63.3342 90.8737 63.3103 91.0413 63.2071 91.1611C63.1297 91.2495 63.0191 91.2992 62.9049 91.2992ZM25.1038 78.9648L62.1615 90.2546L47.7894 59.5631L28.4117 47.5566L25.1038 78.9648Z" fill="white"/>
<path d="M121.347 72.6566C121.334 72.6566 121.32 72.6566 121.307 72.6548L80.8072 68.5943C80.6368 68.5777 80.4967 68.4542 80.4581 68.2866C80.4184 68.1208 80.4903 67.9476 80.6349 67.8573L94.8154 58.9791C94.89 58.9312 94.9794 58.9109 95.0669 58.9201L124.279 61.8421C124.397 61.855 124.504 61.9176 124.57 62.0153C124.636 62.1148 124.657 62.2364 124.624 62.3506L121.731 72.3674C121.681 72.5405 121.524 72.6566 121.347 72.6566ZM82.0489 67.9144L121.055 71.8257L123.723 62.5901L95.1231 59.7289L82.0489 67.9144Z" fill="white"/>
<path d="M121.346 72.656C121.223 72.656 121.107 72.5989 121.031 72.5012C120.952 72.3999 120.927 72.2691 120.962 72.1457L123.855 62.1289C123.903 61.9631 124.053 61.8452 124.225 61.8396L154.485 60.8282C154.602 60.8263 154.809 60.8687 154.888 60.9535L163.717 70.5705C163.822 70.6866 163.852 70.8524 163.791 70.9961C163.731 71.1398 163.592 71.2356 163.436 71.2411L121.36 72.656L121.346 72.656ZM124.542 62.63L121.883 71.838L162.54 70.471L154.424 61.6296L124.542 62.63Z" fill="white"/>
<path d="M238.794 133.82C238.77 133.82 238.746 133.819 238.723 133.813L186.063 124.284C185.876 124.251 185.738 124.091 185.734 123.899C185.731 123.71 185.862 123.544 186.048 123.501L232.169 113.236C232.217 113.225 232.264 113.227 232.313 113.23L260.789 117.389C260.95 117.413 261.081 117.532 261.119 117.691C261.157 117.849 261.095 118.015 260.963 118.111L239.026 133.747C238.958 133.795 238.877 133.82 238.794 133.82ZM188.155 123.852L238.699 132.997L259.689 118.037L232.27 114.032L188.155 123.852Z" fill="white"/>
<path d="M151.852 151.361H151.846L100.068 150.596C100.005 150.594 99.9422 150.58 99.887 150.55L31.0222 113.98C30.8453 113.886 30.7652 113.676 30.8343 113.488C30.9033 113.3 31.1005 113.2 31.2958 113.235L77.4159 123.501L151.988 150.585C152.172 150.652 152.28 150.841 152.245 151.033C152.21 151.223 152.044 151.361 151.852 151.361ZM100.176 149.798L149.485 150.526L77.193 124.267L34.0031 114.658L100.176 149.798Z" fill="white"/>
<path d="M77.3292 124.292C77.3006 124.292 77.2712 124.288 77.2426 124.283L31.1224 114.017C31.0119 113.991 30.9179 113.923 30.8617 113.824L2.38747 63.8079C2.29442 63.6458 2.32759 63.4394 2.46669 63.3141C2.60486 63.1889 2.81213 63.176 2.96688 63.2847L24.9036 78.9243C24.9128 78.9317 24.9211 78.939 24.9303 78.9464L77.5881 123.588C77.7281 123.706 77.7686 123.905 77.6875 124.071C77.6185 124.207 77.4784 124.292 77.3292 124.292ZM31.4688 113.275L75.836 123.15L24.4255 79.5654L3.97925 64.9889L31.4688 113.275Z" fill="white"/>
<path d="M163.392 96.4223C163.324 96.4223 163.256 96.4039 163.196 96.3707L121.15 72.6045C120.994 72.5161 120.915 72.3356 120.959 72.1605C121.001 71.9874 121.154 71.8621 121.333 71.8566L163.409 70.4416C163.467 70.4398 163.516 70.449 163.565 70.4674L210.493 88.3492C210.662 88.4137 210.767 88.585 210.748 88.7655C210.729 88.9461 210.591 89.0898 210.412 89.1174L163.454 96.4168C163.433 96.4205 163.413 96.4223 163.392 96.4223ZM122.781 72.6082L163.468 95.6061L208.799 88.5592L163.355 71.2431L122.781 72.6082Z" fill="white"/>
<path d="M232.255 114.026C232.222 114.026 232.189 114.022 232.157 114.013L163.294 96.4094C163.11 96.3634 162.984 96.1921 162.994 96.0042C163.003 95.8144 163.144 95.6559 163.331 95.6283L210.289 88.3289C210.333 88.3197 210.38 88.3198 210.422 88.3308L263.143 97.8778C263.313 97.9073 263.443 98.0436 263.468 98.2131C263.492 98.3845 263.405 98.5503 263.251 98.6276L232.434 113.984C232.378 114.011 232.317 114.026 232.255 114.026ZM165.38 96.1184L232.21 113.202L261.817 98.4489L210.346 89.1285L165.38 96.1184Z" fill="white"/>
<path d="M111.619 97.1874C111.603 97.1874 111.587 97.1856 111.571 97.1838L62.8568 91.2957C62.7195 91.2791 62.6016 91.1944 62.5427 91.0691L47.7386 59.4563C47.6722 59.3145 47.6943 59.1487 47.7947 59.0289C47.8951 58.911 48.0536 58.8631 48.2056 58.9018L80.9513 67.8114C81.0139 67.828 81.0711 67.8593 81.118 67.9035L111.891 96.4948C112.018 96.6127 112.055 96.7987 111.982 96.9553C111.915 97.099 111.773 97.1874 111.619 97.1874ZM63.1727 90.5292L110.446 96.2442L80.6464 68.5557L48.8283 59.8985L63.1727 90.5292Z" fill="white"/>
<path d="M111.619 97.1869C111.518 97.1869 111.421 97.1482 111.347 97.0801L80.5746 68.4888C80.4484 68.3728 80.4115 68.1885 80.4825 68.0319C80.5525 67.8735 80.7247 67.7721 80.8859 67.798L121.386 71.8584C121.441 71.864 121.495 71.8806 121.543 71.9082L163.589 95.6744C163.746 95.7628 163.824 95.9471 163.779 96.1221C163.735 96.2971 163.578 96.4187 163.398 96.4224L111.624 97.1869H111.619ZM81.9895 68.7117L111.774 96.3855L161.912 95.6449L121.223 72.6451L81.9895 68.7117Z" fill="white"/>
<path d="M186.134 124.291C186.088 124.291 186.041 124.284 185.998 124.267L111.483 97.1627C111.301 97.0964 111.193 96.9103 111.225 96.7206C111.257 96.5308 111.42 96.3908 111.614 96.3871L163.387 95.6225C163.41 95.6152 163.456 95.6262 163.491 95.6354L232.354 113.239C232.534 113.285 232.658 113.447 232.655 113.631C232.653 113.817 232.523 113.976 232.342 114.016L186.221 124.282C186.192 124.288 186.164 124.291 186.134 124.291ZM113.799 97.1535L186.161 123.475L230.537 113.598L163.346 96.4221L113.799 97.1535Z" fill="white"/>
<path d="M151.852 151.361C151.806 151.361 151.759 151.354 151.716 151.337L77.1933 124.268C77.0063 124.2 76.8976 124.004 76.9381 123.809C76.9796 123.616 77.1417 123.464 77.3563 123.494L131.759 127.094L200.656 144.686C200.843 144.734 200.968 144.907 200.956 145.099C200.943 145.291 200.796 145.447 200.605 145.469L151.9 151.357C151.884 151.359 151.868 151.361 151.852 151.361ZM80.1079 124.476L151.899 150.552L198.392 144.933L131.633 127.879L80.1079 124.476Z" fill="white"/>
<path d="M131.732 127.892C131.724 127.892 131.714 127.892 131.705 127.89L77.3027 124.29C77.2179 124.284 77.1359 124.253 77.0705 124.196L24.4128 79.5541C24.2682 79.4325 24.2304 79.2244 24.3207 79.0585C24.4128 78.8927 24.6136 78.819 24.7877 78.8669L63.0209 90.516C63.0457 90.5252 63.0697 90.5345 63.0927 90.5455L131.92 127.138C132.086 127.226 132.168 127.42 132.116 127.6C132.067 127.774 131.91 127.892 131.732 127.892ZM77.4869 123.501L129.899 126.97L62.751 91.2695L26.4062 80.1971L77.4869 123.501Z" fill="white"/>
<path d="M200.557 145.473C200.524 145.473 200.491 145.47 200.458 145.46L131.633 127.879C131.443 127.831 131.315 127.65 131.334 127.455C131.352 127.26 131.51 127.107 131.705 127.094L186.107 123.494L238.865 133.028C239.046 133.06 239.182 133.212 239.193 133.397C239.204 133.581 239.087 133.749 238.91 133.804L200.673 145.457C200.635 145.468 200.597 145.473 200.557 145.473ZM134.258 127.724L200.548 144.659L237.097 133.52L186.063 124.285L134.258 127.724Z" fill="white"/>
<path d="M131.732 127.892C131.666 127.892 131.602 127.875 131.544 127.846L62.7169 91.2532C62.5474 91.1611 62.4654 90.964 62.5234 90.7797C62.5805 90.5973 62.7528 90.4739 62.9527 90.5034L111.667 96.3915C111.697 96.3952 111.727 96.4007 111.755 96.4118L186.271 123.516C186.448 123.581 186.556 123.761 186.53 123.949C186.504 124.135 186.349 124.279 186.161 124.29L131.759 127.89C131.749 127.892 131.741 127.892 131.732 127.892ZM64.9866 91.5535L131.819 127.085L184.214 123.619L111.525 97.1782L64.9866 91.5535Z" fill="white"/>
</svg>
